<svg xmlns="http://www.w3.org/2000/svg" viewBox="0 0 133.13 91.14"><defs><style>.cls-1{fill:#f194b7;}</style></defs><g id="Warstwa_2" data-name="Warstwa 2"><g id="Warstwa_1-2" data-name="Warstwa 1"><path class="cls-1" d="M132.35,41a3.94,3.94,0,0,0-3.68.61c-5.37,3.65-10.79,7.22-16.19,10.82a4.48,4.48,0,0,1-2.24,1c-.42,0-2.66,0-5.71,0a5.36,5.36,0,0,0-5-3.3H95.85A5.35,5.35,0,0,0,91.12,53c-5.21-.31-9.48-.81-9.58-1.58-.87-6.23-5.38-9.87-13.15-10.67,9.09-6.87,12.38-15.54,9-26.15A21.12,21.12,0,0,0,57.33,0c-11.72,0-19,6.31-22.45,17.58A18.87,18.87,0,1,0,14.47,48.67c1.34.57,2.24,1,1.54,2.67a4.66,4.66,0,0,0-.18,1.36c-.35,4-1,4.51-5.25,3.95a2.05,2.05,0,0,1-.41-.1V54.06A3.1,3.1,0,0,0,7.07,51h-4A3.1,3.1,0,0,0,0,54.06V70.71a2.38,2.38,0,0,0,.2,1,3.1,3.1,0,0,0,2.9,2h4a3.1,3.1,0,0,0,3.1-3.1V69.11a1.58,1.58,0,0,1,.31,0h.23c5.07-.51,5.06-.51,5.08,4.51A58.1,58.1,0,0,0,16,80.46,12.07,12.07,0,0,0,27.86,91.09q20.85.09,41.72,0A12.31,12.31,0,0,0,81.76,79.2c.09-1.45,0-2.9,0-4.35,0-1,4.16-1.77,9.37-2.22a5.34,5.34,0,0,0,4.69,2.76h3.73a5.37,5.37,0,0,0,5-3.29c3.57,0,6.32.22,7,.6,1.33.74,2.56,1.66,3.83,2.5q6.48,4.33,13,8.65a6.53,6.53,0,0,0,1.79,1c2.21.61,2.88.07,2.88-2.21,0-12.92,0-25.83,0-38.74C133,42.91,133.63,41.5,132.35,41ZM22.43,37.64a6.24,6.24,0,1,1-.66-12.47,6.24,6.24,0,0,1,.66,12.47Zm34.19,35.2c0-2.29,0-4.59,0-6.88,0-3.44,0-6.87,0-10.31,0,3.44,0,6.87,0,10.31C56.63,68.25,56.62,70.55,56.62,72.84Zm.1-44.72A6.28,6.28,0,0,1,50.38,22a6.31,6.31,0,0,1,6.19-6.12A6,6,0,0,1,62.8,22,6,6,0,0,1,56.72,28.12Z"/></g></g></svg>